<?xml version="1.0" encoding="utf-8"?>
<!-- Generator: Adobe Illustrator 19.0.1, SVG Export Plug-In . SVG Version: 6.00 Build 0)  -->
<svg width="30" height="30" version="1.1" id="Слой_1" xmlns="http://www.w3.org/2000/svg" xmlns:xlink="http://www.w3.org/1999/xlink" x="0px" y="0px"
	 viewBox="0 0 30 30" style="enable-background:new 0 0 30 30;" xml:space="preserve">
<style type="text/css">
	.st0{fill:#fff;}
	.st1{fill:none;stroke:#000000;stroke-miterlimit:10;}
</style>
<g>
	<rect x="0.5" y="5.3" class="st0" width="29" height="23.3"/>
	<path d="M29,5.8v22.3H1V5.8H29 M30,4.8H0v24.3h30V4.8L30,4.8z"/>
</g>
<path class="st1" d="M29.3,13.4H1H29.3z"/>
<g>
	<path d="M12.2,25.2h-1.1V18l-2.2,0.8v-1l3.1-1.2h0.2V25.2z"/>
	<path d="M19.9,22.3h1.2v0.9h-1.2v2h-1.1v-2H15v-0.6l3.8-5.9h1.2V22.3z M16.2,22.3h2.7v-4.2l-0.1,0.2L16.2,22.3z"/>
</g>
<g>
	<rect x="20.5" y="1.4" class="st0" width="3.3" height="6.9"/>
	<path d="M23.2,1.9v5.9H21V1.9H23.2 M24.2,0.9H20v7.9h4.3V0.9L24.2,0.9z"/>
</g>
<g>
	<rect x="6.3" y="1.4" class="st0" width="3.3" height="6.9"/>
	<path d="M9,1.9v5.9H6.8V1.9H9 M10,0.9H5.8v7.9H10V0.9L10,0.9z"/>
</g>
</svg>
