<?xml version="1.0" encoding="utf-8"?>
<!-- Generator: Adobe Illustrator 19.0.1, SVG Export Plug-In . SVG Version: 6.00 Build 0)  -->
<svg version="1.1" id="Слой_1" xmlns="http://www.w3.org/2000/svg" xmlns:xlink="http://www.w3.org/1999/xlink" x="0px" y="0px"
	 viewBox="0 0 143.8 30.2" style="enable-background:new 0 0 143.8 30.2;" xml:space="preserve">
<style type="text/css">
	.st0{fill:#020202;}
	.st1{fill:#FFFFFF;}
	.st2{fill:#070707;}
</style>
<g>
	<g>
		<path d="M45.3,10.1c-0.2-0.4,0.1-2.9-0.2-3.2c-0.8-1.2-4.1,1.8-5.3,1.3c-2.9-1.4,0.3-4.4-2.8-3.4c-4.3,1.3-10,9-10,13.3
			c0,2.1,0.2,4,1.6,5.6c2.4,2.8,2.4,2.8,7.2,3.2c2.4,0.2,2.2-0.4,3.4-1.8c3.2-2.8,2.9,1.1,2.9,1.1c-2.4,3.6-4.8,4.4-9.1,3.9
			c-7.8-0.8-11.2-6.5-9.4-14.1C25.6,6.8,34.6-0.2,44,0c3.2,0.1,4.5,1.6,3.9,4.8C47.5,7,47,9.2,46.5,11.4
			C46.5,11.2,45.3,10.9,45.3,10.1z"/>
		<path d="M89.3,13c2.2-0.5,1.6-0.4,3.6-0.8c-0.2,3.7-5.4,8.4,3.1,10.4c3.4-2.9,7.4-4.4,1.7-10.1c1.6-0.1,3.4-0.2,5.4-0.3
			c0,4.3,0,8.5,0,12.9c-1.7,0.3-1.3,0.3-3.2,0.6c0-0.9,0.1-1.4,0.1-2.5c-1,0.6-3.8,1.4-4.6,1.7c-3.7,1-5.6-1.9-5.9-2.5
			C88,19.5,89.3,16,89.3,13z"/>
		<path d="M57.4,22.3c-0.6,0.5-5.8,4.4-7.4,3.5c-0.6-0.3-1.4-1.2-1.6-1.9c-1.1-4.5-0.4-8.5,3.7-11.2c0.6-0.4,1.5-0.5,2.2-0.5
			c0.9,0,5.5,0.2,6.4,0.3c4,0.8-2.4,2.4-1,6.5l3.9,6.2 M57.3,19.3c0.5-7.3-3.1-5.2-5.3-3.9c-3.6,3.5-1.7,7.2-0.6,8.5"/>
		<path d="M137.5,22.4c-0.6,0.5-5.8,4.4-7.4,3.5c-0.6-0.3-1.4-1.2-1.6-1.9c-1.1-4.5-0.4-8.5,3.7-11.2c0.6-0.4,1.5-0.5,2.2-0.5
			c0.9,0,5.5,0.2,6.4,0.3c4,0.8-2.4,2.4-1,6.5l3.9,6.2 M137.4,19.3c0.5-7.3-3.1-5.2-5.3-3.9c-3.6,3.5-1.7,7.2-0.6,8.5"/>
		<path d="M84.3,15.7c0.9-1.3,1.9-2.1,0.9-2.5c-2-0.7-4.5-1.5-6.4-0.9c-2.2,0.7-4.1,2.1-4.2,6c-0.2,0.8-0.1,1.3-0.1,2
			c0.1,3.4,1.7,5.1,4.6,5.5c3.5,0.5,5.9-0.8,7.1-4.2c-5.1,3.1-7,1.4-7.5,0.9c-0.8-0.8-2.2-7.5,2.9-7.5"/>
		<path d="M68.8,18.2c-0.2,2.2,1.4,4,4.6,4.7c-0.8,0.8-1.3,1.4-1.8,2c-1.8,2-3.6,1.9-5-0.5c-0.4-0.6-0.8-1.4-0.8-2.1
			c-0.1-5.3,0-10.6,0-16c1.9-0.5,1.1,0,3.1-0.5"/>
		<path d="M111.6,18.2c-0.2,2.2,1.4,4,4.6,4.7c-0.8,0.8-1.3,1.4-1.8,2c-1.8,2-3.6,1.9-5-0.5c-0.4-0.6-0.8-1.4-0.8-2.1
			c-0.1-5.3,0-10.6,0-16c1.9-0.5,1.1,0,3.1-0.5"/>
		<path d="M121.3,17.7c-0.2,2.2,1.4,4,4.6,4.7c-0.8,0.8-1.3,1.4-1.8,2c-1.8,2-3.6,1.9-5-0.5c-0.4-0.6-0.8-1.4-0.8-2.1
			c-0.1-5.3,0-10.6,0-16c1.9-0.5,1.1,0,3.1-0.5"/>
	</g>
	<circle class="st0" cx="26.7" cy="2.2" r="1.9"/>
	<path class="st0" d="M18.8,7.3L0,9.6c0,0,12.3,2.9,10.4,8.4S18.8,7.3,18.8,7.3z"/>
	<circle class="st1" cx="76.8" cy="12.9" r="1.9"/>
	<circle class="st2" cx="76.2" cy="12.1" r="1.4"/>
</g>
</svg>
